<svg xmlns="http://www.w3.org/2000/svg" style="display: none;">
   <!-- Flag CHF -->
   <symbol id="flag-chf" viewBox="0 0 512 512">
      <circle cx="256" cy="256" r="256" fill="#d80027"></circle>
      <path fill="#eee" d="M389.6 211.5h-89v-89h-89.1v89h-89v89h89v89h89v-89h89z"></path>
   </symbol>

   <!-- Flag JPY -->
   <symbol id="flag-jpy" viewBox="0 0 512 512">
      <circle cx="256" cy="256" r="256" fill="#eee"></circle>
      <circle cx="256" cy="256" r="111.3" fill="#d80027"></circle>
   </symbol>

   <!-- Icon Caret -->
   <symbol id="icon-caret" viewBox="0 0 9 6">
      <path d="M1.08341 0.679043C0.83589 0.440319 0.443217 0.440319 0.195695 0.679043C-0.0690109 0.93434 -0.063765 1.35935 0.20285 1.60115L4.05975 5.32096C4.18042 5.43734 4.34284 5.5 4.5036 5.5C4.6698 5.5 4.82584 5.43826 4.94746 5.32096L8.80436 1.60115C9.06521 1.34957 9.06521 0.930626 8.80436 0.679043C8.55684 0.440319 8.16416 0.440319 7.91664 0.679043L4.49668 3.97745L1.08341 0.679043Z" fill="currentColor"></path>
   </symbol>

   <!-- Icon Time Setting -->
   <symbol id="icon-time-setting" viewBox="0 0 12 12">
      <path d="M6 12C4.81331 12 3.65328 11.6481 2.66658 10.9888C1.67989 10.3295 0.910851 9.39246 0.456726 8.2961C0.00259972 7.19975 -0.11622 5.99335 0.115291 4.82946C0.346802 3.66558 0.918247 2.59648 1.75736 1.75736C2.59648 0.918247 3.66558 0.346802 4.82946 0.115291C5.99335 -0.11622 7.19975 0.00259972 8.2961 0.456726C9.39246 0.910851 10.3295 1.67989 10.9888 2.66658C11.6481 3.65328 12 4.81331 12 6C11.9984 7.59081 11.3658 9.11602 10.2409 10.2409C9.11602 11.3658 7.59081 11.9984 6 12ZM6 2C5.20888 2 4.43552 2.2346 3.77772 2.67412C3.11993 3.11365 2.60724 3.73836 2.30448 4.46927C2.00173 5.20017 1.92252 6.00444 2.07686 6.78036C2.2312 7.55629 2.61217 8.26902 3.17158 8.82843C3.73099 9.38784 4.44372 9.7688 5.21964 9.92314C5.99557 10.0775 6.79983 9.99827 7.53074 9.69552C8.26164 9.39277 8.88636 8.88008 9.32588 8.22228C9.76541 7.56449 10 6.79113 10 6C10 4.93914 9.57858 3.92172 8.82843 3.17158C8.07828 2.42143 7.06087 2 6 2Z"></path>
      <path d="M8.5 6.5H6C5.86739 6.5 5.74021 6.44732 5.64645 6.35355C5.55268 6.25979 5.5 6.13261 5.5 6V3.5C5.5 3.36739 5.55268 3.24021 5.64645 3.14645C5.74021 3.05268 5.86739 3 6 3C6.13261 3 6.25979 3.05268 6.35355 3.14645C6.44732 3.24021 6.5 3.36739 6.5 3.5V5.5H8.5C8.63261 5.5 8.75979 5.55268 8.85355 5.64645C8.94732 5.74021 9 5.86739 9 6C9 6.13261 8.94732 6.25979 8.85355 6.35355C8.75979 6.44732 8.63261 6.5 8.5 6.5Z"></path>
   </symbol>

   <!-- Icon Arrow Up Circle -->
   <symbol id="icon-arrow-up-circle" viewBox="0 0 19 18">
      <circle opacity="0.3" r="9" transform="matrix(1 0 0 -1 9.5 9)" fill="currentColor"></circle>
      <path d="M13.097 8.58776L12.8022 8.88263C12.7096 8.97534 12.5859 9.02663 12.4542 9.02663C12.3223 9.02663 12.1874 8.97534 12.0948 8.88263L10.1888 6.98795V13.0075C10.1888 13.279 9.99067 13.5 9.71928 13.5H9.30213C9.03081 13.5 8.78255 13.279 8.78255 13.0075V6.96651L6.88033 8.88263C6.78762 8.97534 6.67098 9.02663 6.53913 9.02663C6.40742 9.02663 6.28713 8.97534 6.1945 8.88263L5.9013 8.58776C5.70945 8.39583 5.71025 8.08361 5.90211 7.89168L9.15045 4.64371C9.24294 4.55122 9.36703 4.5 9.49984 4.5H9.50123C9.63301 4.5 9.75681 4.55122 9.8493 4.64371L13.097 7.89161C13.289 8.08346 13.289 8.39583 13.097 8.58776Z" fill="currentColor"></path>
   </symbol>

   <!-- Icon Arrow Down Circle -->
   <symbol id="icon-arrow-down-circle" viewBox="0 0 19 18">
      <circle opacity="0.3" cx="9.5" cy="9" r="9" fill="currentColor"></circle>
      <path d="M13.097 9.41224L12.8022 9.11737C12.7096 9.02466 12.5859 8.97337 12.4542 8.97337C12.3223 8.97337 12.1874 9.02466 12.0948 9.11737L10.1888 11.012V4.99251C10.1888 4.72105 9.99067 4.5 9.71928 4.5H9.30213C9.03081 4.5 8.78255 4.72105 8.78255 4.99251V11.0335L6.88033 9.11737C6.78762 9.02466 6.67098 8.97337 6.53913 8.97337C6.40742 8.97337 6.28713 9.02466 6.1945 9.11737L5.9013 9.41224C5.70945 9.60417 5.71025 9.91639 5.90211 10.1083L9.15045 13.3563C9.24294 13.4488 9.36703 13.5 9.49984 13.5H9.50123C9.63301 13.5 9.75681 13.4488 9.8493 13.3563L13.097 10.1084C13.289 9.91654 13.289 9.60417 13.097 9.41224Z" fill="currentColor"></path>
   </symbol>
</svg>