<svg width="44" height="44" viewBox="0 0 44 44" fill="none" xmlns="http://www.w3.org/2000/svg">
<g clip-path="url(#clip0_15302_70576)">
<path d="M22.6245 36.8701C21.1944 37.7821 19.7998 38.7085 18.3653 39.5694C17.7108 39.9621 17.0129 39.8013 16.4915 39.2832C16.1209 38.9159 15.9789 38.4999 16.1609 37.9751C16.3173 37.5258 16.446 37.061 16.5348 36.5928C16.6646 35.9083 16.4848 35.2781 16.0888 34.709C16.0045 34.588 15.9135 34.4704 15.8414 34.3417C15.2323 33.2545 15.5585 32.2305 16.7389 31.8621C18.5584 31.293 20.3091 31.5226 21.9244 32.5755C22.1252 32.7064 22.3127 32.8573 22.508 32.9971C22.5169 33.0037 22.5413 32.9893 22.6256 32.9649C22.6256 32.6632 22.6289 32.3392 22.6256 32.0152C22.62 31.6081 22.8064 31.3906 23.2225 31.3906C24.7934 31.3906 26.3644 31.3906 27.9365 31.3906C28.327 31.3906 28.499 31.5848 28.499 31.9753C28.4945 34.7478 28.4934 37.5203 28.5001 40.2939C28.5001 40.7143 28.327 40.9007 27.9043 40.8963C26.2424 40.8819 26.3699 41.0671 26.3722 39.4529C26.3744 37.6789 26.3755 35.9038 26.3722 34.1287C26.3711 33.4986 26.3422 33.503 25.5246 33.4797C25.0297 33.4653 24.789 33.5718 24.7979 34.1498C24.8312 36.1457 24.8123 38.1427 24.8101 40.1385C24.8101 40.7643 24.6858 40.8896 24.0756 40.893C22.5668 40.9007 22.6145 41.0206 22.6278 39.4618C22.6356 38.5631 22.6289 37.6634 22.6289 36.8701H22.6245ZM18.2655 37.1564C18.4286 37.1486 18.5295 37.1719 18.6005 37.1364C19.7033 36.595 20.6563 35.8539 21.4729 34.9386C21.7314 34.649 21.5206 34.4615 21.2854 34.3284C20.4034 33.8292 19.4426 33.5962 18.4352 33.6128C17.906 33.6217 17.8162 33.8392 18.1401 34.2574C18.6061 34.8609 18.707 35.5155 18.5062 36.2355C18.4286 36.5162 18.3587 36.8002 18.2655 37.1564Z" fill="#524E4B"/>
<path d="M9.44946 33.4684C8.58964 33.4684 7.74092 33.4518 6.89331 33.4751C6.40738 33.4884 6.18993 33.3264 6.18771 32.8094C6.18327 31.3893 6.16774 31.3893 7.60224 31.3893C8.72943 31.3893 9.85773 31.3871 10.9849 31.3904C11.3388 31.3916 11.7227 31.3605 11.7183 30.9212C11.7127 30.4718 11.3533 30.3032 10.935 30.3387C10.1273 30.4075 9.32187 30.5528 8.51531 30.5606C8.03381 30.565 7.52125 30.4408 7.07637 30.2477C6.33304 29.9271 6.17772 28.7544 6.78569 28.2219C6.91439 28.1098 7.25721 28.0577 7.37481 28.1464C8.45651 28.9652 9.62031 28.6368 10.7841 28.4615C11.1635 28.4038 11.5652 28.3583 11.939 28.4194C13.2681 28.6346 13.9149 29.7285 13.5377 31.0543C13.5133 31.1419 13.4945 31.2318 13.4567 31.3893C13.7951 31.3893 14.1036 31.3904 14.4109 31.3893C14.8325 31.3871 15.061 31.5546 15.0555 32.0173C15.0377 33.6149 15.2119 33.4706 13.652 33.4684C13.0973 33.4684 12.5426 33.4806 11.9879 33.464C11.6739 33.4551 11.5274 33.5317 11.5119 33.8878C11.4498 35.2824 11.6506 35.4632 13.0108 35.1559C13.388 35.0705 13.7618 34.9628 14.1435 34.8985C14.605 34.8197 15.01 35.0682 15.0266 35.512C15.0588 36.3585 15.1331 37.2316 14.9756 38.0526C14.6871 39.5559 13.5555 40.3358 12.182 40.7597C11.0814 41.0991 9.94981 41.0403 8.84925 40.7242C7.24167 40.2626 6.19325 38.807 6.10561 36.8922C6.07233 36.1777 6.14999 35.4565 6.21877 34.7409C6.25649 34.3427 6.50279 34.113 6.94102 34.1607C7.0686 34.174 7.19951 34.1618 7.32932 34.1629C8.07264 34.1652 8.13588 34.2595 8.17249 34.9828C8.21132 35.7539 8.27456 36.5283 8.40326 37.2871C8.55081 38.1569 9.1255 38.665 10.0031 38.7028C10.6354 38.7305 11.2822 38.6706 11.9069 38.5608C12.1898 38.5108 12.4971 38.2945 12.6813 38.0637C12.8687 37.8296 12.9198 37.4846 13.0307 37.1884C12.7667 37.1795 12.5004 37.144 12.2386 37.1662C11.7804 37.205 11.3244 37.3315 10.8684 37.3293C9.89878 37.3248 9.54487 36.9399 9.53266 35.9669C9.52379 35.1903 9.52379 34.4148 9.51713 33.6382C9.51713 33.6049 9.49162 33.5727 9.44946 33.4662V33.4684Z" fill="#524E4B"/>
<path d="M37.7946 35.7729C37.7946 36.9566 37.8024 38.1393 37.7924 39.3231C37.7835 40.4658 36.9548 41.1481 35.8775 40.8119C34.2389 40.3005 32.5769 40.2617 30.8906 40.3537C29.6924 40.4192 29.2874 40.0198 29.273 38.8127C29.273 38.7761 29.273 38.7384 29.273 38.7018C29.2675 37.0609 29.273 37.0753 30.8074 36.4729C31.1025 36.3575 31.5507 36.0691 31.5463 35.8672C31.5374 35.3868 31.0315 35.3945 30.6498 35.3446C29.5948 35.2071 29.3008 34.8953 29.2786 33.8436C29.2653 33.2334 29.2841 32.6232 29.2797 32.013C29.2764 31.5681 29.4982 31.3839 29.9309 31.3839C32.334 31.3884 34.7381 31.3906 37.1412 31.3828C37.616 31.3817 37.8024 31.5914 37.798 32.0562C37.7857 33.2944 37.7935 34.5336 37.7935 35.7729H37.7946ZM33.5754 33.4663C33.1317 33.4663 32.6879 33.4519 32.2463 33.4741C32.1054 33.4808 31.969 33.5839 31.8303 33.6427C31.9102 33.7803 31.9556 33.9778 32.0755 34.0455C32.3451 34.1975 32.6502 34.284 32.9397 34.3994C34.1268 34.8687 34.3221 36.1567 33.3081 36.9389C33.0052 37.1719 32.6257 37.3039 32.3096 37.5236C32.1454 37.6367 32.0422 37.8386 31.9113 38.0006C32.0932 38.086 32.2685 38.2292 32.4571 38.248C33.3724 38.3401 34.2921 38.3889 35.2085 38.4744C35.5824 38.5087 35.7222 38.349 35.7044 38.0017C35.6845 37.6334 35.649 37.2662 35.6379 36.8978C35.6124 36.0125 35.599 35.1261 35.5746 34.2407C35.5613 33.7415 35.3472 33.4408 34.7947 33.4641C34.3886 33.4819 33.9826 33.4675 33.5754 33.4675V33.4663Z" fill="#524E4B"/>
<path d="M33.3122 43.999C32.5112 44.0035 31.8666 43.3667 31.8633 42.5668C31.86 41.7524 32.4768 41.1334 33.2967 41.1289C34.1088 41.1245 34.7467 41.7491 34.7534 42.5523C34.76 43.3411 34.1077 43.9946 33.3111 43.999H33.3122Z" fill="#524E4B"/>
<path d="M34.5181 21.3518C34.5136 21.3585 34.5114 21.3618 34.5114 21.3618C33.2355 23.0016 31.578 24.3828 29.6543 25.4002C27.6162 26.3798 25.2198 26.7348 22.9566 26.7781C24.0993 26.2877 24.9003 25.1461 24.9003 23.817C24.9003 22.1883 23.6977 20.8426 22.1367 20.6274C26.3393 20.4776 29.7164 17.4366 29.8806 13.6523C29.885 13.5569 29.8873 13.4604 29.8873 13.3628C29.8873 13.1608 29.8784 12.9611 29.8595 12.7648C29.8595 12.4253 29.864 12.0414 29.8873 11.7186C29.9427 10.9331 31.0289 10.3828 31.0289 10.3828H35.4078C36.373 10.5315 36.6693 11.5699 36.6693 11.5699C37.2107 17.0505 34.6623 21.1255 34.5181 21.3518Z" fill="#1C3E8B"/>
<path d="M14.0921 5.41014C14.595 3.42702 13.3951 1.41169 11.412 0.908783C9.42884 0.405873 7.41351 1.60582 6.9106 3.58894C6.40769 5.57205 7.60763 7.58738 9.59075 8.09029C11.5739 8.5932 13.5892 7.39325 14.0921 5.41014Z" fill="#FFD700"/>
<path d="M36.6454 5.36296C37.1223 3.37343 35.8961 1.37398 33.9066 0.897074C31.917 0.420165 29.9176 1.64639 29.4407 3.63592C28.9638 5.62545 30.19 7.62489 32.1795 8.1018C34.169 8.57871 36.1685 7.35249 36.6454 5.36296Z" fill="#1C3E8B"/>
<path d="M24.901 23.8174C24.901 25.1466 24.1 26.2882 22.9573 26.7785C22.0276 26.7974 21.1201 26.763 20.268 26.6976C17.2348 26.4657 14.9127 25.8455 14.824 25.8222C14.824 25.8211 14.8218 25.8211 14.8218 25.8211C11.7342 24.4143 9.24019 22.1045 7.77018 19.2765H7.76907C7.75576 19.2521 7.74244 19.2266 7.72913 19.2011C6.61858 17.0244 6.81052 11.5881 6.81052 11.5881C6.83381 10.6994 7.9133 10.3633 7.9133 10.3633H12.2812C13.1265 10.4576 13.5492 11.4672 13.5492 11.4672L13.7345 12.8118C13.5914 13.473 13.729 14.2729 13.9298 14.9597C13.9298 14.9608 13.9298 14.9619 13.9298 14.963C14.0629 15.4978 14.2615 16.0103 14.5189 16.4929C14.5211 16.4985 14.5244 16.5029 14.5267 16.5085C14.53 16.514 14.5322 16.5196 14.5344 16.5229C14.5344 16.5262 14.5366 16.5273 14.5366 16.5273C15.7759 18.8338 18.3276 20.4603 21.3209 20.6212C21.4828 20.63 21.6459 20.6345 21.8101 20.6345C21.92 20.6345 22.0287 20.6322 22.1363 20.6278C23.6973 20.843 24.8999 22.1888 24.8999 23.8174H24.901Z" fill="#FFD700"/>
</g>
<defs>
<clipPath id="clip0_15302_70576">
<rect width="44" height="44" fill="white"/>
</clipPath>
</defs>
</svg>
