<svg xmlns="http://www.w3.org/2000/svg" width="44" height="44" viewBox="0 0 44 44" fill="none">
  <path d="M39.1348 40.8266H4.86353C3.83782 40.8266 3 39.9871 3 38.9614V4.86695C3 3.83867 3.83782 3 4.86353 3H39.1348C40.1622 3 41 3.83867 41 4.86695V38.9614C41 39.9871 40.1622 40.8266 39.1348 40.8266Z" fill="#DF146E"/>
  <path d="M30.2383 23.7112L18.1902 21.793L19.8206 28.9064L30.2383 23.7112ZM30.7268 23.1288L21.2537 9.96875L18.1595 21.1619L30.7268 23.1288ZM17.5728 21.009L7.64616 8.32812L20.6456 9.88164L17.5728 21.009ZM12.7568 15.7532L7.24902 10.5606H8.69663L12.7568 15.7532ZM33.6844 16.7354L31.3537 23.0579L27.5737 17.8328L33.6844 16.7354ZM21.2904 28.8193L30.4373 25.1469L30.825 23.9811L21.2904 28.8193ZM13.6612 35.4988L17.5804 21.7469L19.567 30.6965L13.6612 35.4988ZM34.2429 16.7832L33.2795 19.3932L36.7461 19.3334L34.2429 16.7832Z" fill="white"/>
</svg>