<svg width="44" height="44" viewBox="0 0 44 44" fill="none" xmlns="http://www.w3.org/2000/svg">
<path d="M16.5938 12.5664H27.4095V31.4342H16.5938V12.5664Z" fill="#FF5F00"/>
<path d="M17.2794 22C17.2794 18.1672 19.1332 14.7663 21.9828 12.567C19.7985 10.8981 17.1181 9.9953 14.3614 10C7.52779 10 2 15.3666 2 22C2 28.6334 7.52779 34 14.3605 34C17.2447 34 19.8883 33.033 21.9828 31.433C19.1332 29.2672 17.2794 25.8337 17.2794 22.0009V22Z" fill="#EB001B"/>
<path d="M41.9984 22C41.9984 28.6334 36.4697 34 29.637 34C26.88 34.0049 24.1992 33.1021 22.0146 31.433C24.8989 29.2337 26.719 25.8337 26.719 22.0009C26.719 18.1663 24.8643 14.7663 22.0146 12.567C24.1992 10.8979 26.88 9.99511 29.637 10C36.4697 10 41.9984 15.4001 41.9984 22Z" fill="#F79E1B"/>
</svg>
