<svg width="44" height="44" viewBox="0 0 44 44" fill="none" xmlns="http://www.w3.org/2000/svg">
<path d="M38.34 23.0871C38.34 23.5963 38.3154 24.1012 38.2783 24.6021C38.1076 26.7214 37.5762 28.7945 36.7077 30.7294C36.3712 31.4819 35.9837 32.2099 35.5483 32.9082C34.0565 35.3201 32.0347 37.3486 29.6414 38.8345C27.248 40.3204 24.5482 41.2232 21.7535 41.4723C18.9589 41.7215 16.1454 41.3101 13.5336 40.2704C10.9218 39.2308 8.58265 37.5911 6.69965 35.48C4.81664 33.3689 3.44092 30.8436 2.68032 28.1023C1.91973 25.361 1.79494 22.478 2.31575 19.6795C2.83656 16.881 3.9888 14.243 5.68214 11.9724C7.37547 9.70166 9.56389 7.86001 12.0758 6.5918C11.5908 7.21694 11.155 7.87985 10.7725 8.5744C10.7396 8.63283 10.7067 8.68709 10.6779 8.74552C10.4353 8.94587 10.201 9.16291 9.97073 9.36743C9.74048 9.57196 9.41978 9.89752 9.14843 10.1813C9.09087 10.244 9.02919 10.3066 8.97574 10.3692C8.9223 10.4318 8.85651 10.4986 8.80306 10.5653C8.74961 10.6321 8.61394 10.7824 8.51936 10.8951C8.33436 11.1205 8.15755 11.3459 7.98487 11.5838C7.23148 12.597 6.60066 13.6985 6.10593 14.8645C6.05659 14.9813 6.00724 15.0982 5.96202 15.2151C5.9168 15.3319 5.85512 15.4905 5.80578 15.6325C5.77747 15.7021 5.75277 15.7731 5.73178 15.8453C5.65366 16.0582 5.58376 16.2627 5.51799 16.4881L5.39463 16.9055L5.33297 17.1309C5.30007 17.2769 5.26307 17.4189 5.23018 17.5483C5.12328 18.0115 5.03693 18.479 4.97115 18.9549C4.97115 19.0759 4.94237 19.197 4.92593 19.318C4.90948 19.439 4.89303 19.5309 4.89303 19.6269C4.89303 19.7229 4.86837 19.9065 4.86014 20.0442C4.86247 20.0553 4.86247 20.0666 4.86014 20.0776L4.83547 20.495C4.83547 20.733 4.83547 20.975 4.83547 21.213C4.83675 24.787 6.00926 28.2591 8.1683 31.0822C10.3273 33.9053 13.3502 35.919 16.7606 36.8061C20.1711 37.6931 23.7753 37.4032 27.0057 35.9818C30.2359 34.5606 32.9086 32.0886 34.6026 28.9555C34.7506 28.68 34.8946 28.4003 35.0138 28.1208C35.0116 28.1139 35.0116 28.1066 35.0138 28.0999C35.9378 26.1119 36.4499 23.9526 36.5186 21.7556C36.5186 21.5802 36.5186 21.405 36.5186 21.2296C36.5186 20.7037 36.4939 20.1862 36.4446 19.677L36.5227 19.7396C36.7694 19.9441 37.0037 20.157 37.2381 20.3824C37.4601 20.0025 37.6945 19.6393 37.9453 19.2846C38.0913 19.997 38.1958 20.7176 38.2578 21.4425C38.3071 21.9809 38.3318 22.5277 38.3318 23.0786" fill="#EB2127"/>
<path d="M36.5268 21.2375C36.5268 21.4128 36.5268 21.5881 36.5268 21.7634C36.4963 23.9655 35.9822 26.1329 35.022 28.1077C35.022 28.1077 35.022 28.1077 35.022 28.1286C35.022 28.1494 35.022 28.1286 35.022 28.1286C34.8904 28.4166 34.7506 28.6963 34.6108 28.9634C33.4633 31.0739 31.8663 32.8977 29.9361 34.3018C27.567 36.0331 24.7733 37.0671 21.8625 37.2902C18.9517 37.5132 16.0368 36.9165 13.4386 35.5657C10.8404 34.215 8.65976 32.1626 7.13676 29.6346C5.61375 27.1065 4.80746 24.2009 4.80664 21.2375C4.80664 20.9996 4.80664 20.7575 4.80664 20.5196L4.83131 20.1022C4.83365 20.0912 4.83365 20.0798 4.83131 20.0688C4.83131 19.9269 4.83131 19.785 4.86421 19.6514C4.8971 19.5179 4.86421 19.4594 4.8971 19.3676C4.92999 19.2757 4.92587 19.1255 4.94232 19.0045C5.0081 18.5287 5.09445 18.0612 5.20135 17.5978C5.23423 17.4518 5.27124 17.3098 5.30414 17.1804L5.3658 16.955L5.48915 16.5377C5.55494 16.3206 5.62483 16.1203 5.70295 15.8949C5.72394 15.8227 5.74864 15.7516 5.77695 15.682C5.82629 15.5443 5.87974 15.4024 5.93319 15.2646C5.98664 15.1269 6.02775 15.0309 6.07709 14.9182C6.57482 13.7377 7.21271 12.6234 7.9766 11.6C8.14928 11.3621 8.32607 11.1367 8.51109 10.9113C8.60566 10.7986 8.70022 10.6859 8.79479 10.5815C8.88935 10.4772 8.9058 10.4521 8.96747 10.3854L9.14016 10.1975C9.41425 9.91928 9.68834 9.64797 9.96244 9.38363C10.1927 9.16659 10.427 8.96624 10.6696 8.76172C10.6408 8.82015 10.6121 8.87859 10.5792 8.93702L10.4846 9.09563C9.53016 11.1399 8.94261 13.3406 8.74956 15.5944C8.692 16.233 8.6591 16.8841 8.6591 17.5436C8.6591 25.9623 13.5271 32.7825 19.534 32.7825H19.608C19.793 32.7825 19.978 32.7825 20.1671 32.7825C22.7061 32.7836 25.1418 31.7619 26.9394 29.9416C28.7371 28.1214 29.7497 25.6515 29.7552 23.074C29.7552 22.9821 29.7552 22.8946 29.7552 22.8069C29.6872 20.2461 28.6263 17.8161 26.8031 16.0452C30.2936 16.1362 33.6574 17.3919 36.3747 19.618C36.4038 19.6379 36.4313 19.6603 36.4569 19.6848C36.5063 20.194 36.5309 20.7116 36.5309 21.2375" fill="#F58220"/>
<path d="M32.2715 11.214C32.2715 11.214 19.3204 8.73474 13.2354 20.1628C13.2354 20.1628 14.3125 12.2324 23.5634 8.66378L21.7502 5.1911C21.7502 5.1911 25.4505 1.78938 31.9467 2.67424L32.2715 11.214Z" fill="#EB2127"/>
<path d="M16.2123 17.3059C16.2123 17.3059 21.3846 10.444 33.2134 12.2304L33.0694 8.22766C33.0694 8.22766 38.0032 8.06905 41.9997 11.5668L37.074 19.1132C37.074 19.1132 33.6944 15.1187 26.6843 15.0185C23.0625 14.9359 19.4724 15.7193 16.2041 17.3059" fill="#F58220"/>
<path d="M11.1183 23.5164C11.1183 23.5164 5.21011 10.4313 18.9424 2L22.2317 8.1231C20.543 8.79498 18.9853 9.76586 17.6309 10.9906C15.053 13.257 12.2325 17.1012 11.1348 23.5122" fill="#F58220"/>
<path d="M36.5526 19.7607C36.5978 20.2491 36.6225 20.7457 36.6225 21.2383C36.6225 21.4052 36.6225 21.5722 36.6225 21.7349V21.7683C36.5567 23.9756 36.043 26.1453 35.1136 28.1418C35.1152 28.1502 35.1152 28.1587 35.1136 28.1669C34.9903 28.4383 34.8463 28.7178 34.7025 29.0017C33.5392 31.1267 31.924 32.9618 29.9743 34.3735C27.5927 36.1108 24.7854 37.1477 21.8609 37.3701C18.9364 37.5924 16.0082 36.9917 13.3984 35.634C10.7885 34.2762 8.59799 32.214 7.06787 29.6742C5.53776 27.1344 4.72728 24.2154 4.72559 21.2383C4.72559 21.0254 4.72559 20.7958 4.72559 20.5203L4.75026 20.0779V20.0403C4.75026 19.8776 4.77493 19.7399 4.78726 19.623C4.7996 19.5061 4.78726 19.456 4.81604 19.3684V19.3141C4.81604 19.2014 4.84482 19.0887 4.86127 18.9719C4.92706 18.5002 5.01339 18.0244 5.12029 17.5569C5.14496 17.4401 5.17374 17.3232 5.20252 17.2104V17.1228C5.22308 17.0477 5.24363 16.9684 5.2683 16.8932C5.29297 16.8181 5.34642 16.6095 5.39166 16.4758C5.46155 16.238 5.53144 16.0251 5.60133 15.8289C5.60133 15.7621 5.64657 15.6954 5.67945 15.616C5.7329 15.4658 5.78635 15.328 5.83569 15.1986C5.88503 15.0692 5.92204 14.9816 5.9796 14.848C6.48018 13.6768 7.11351 12.5688 7.86677 11.5465C8.05179 11.2961 8.22858 11.0707 8.40949 10.8578C8.48761 10.7576 8.58217 10.6491 8.68907 10.5239C8.74252 10.4654 8.80007 10.3945 8.86586 10.3277L9.03854 10.1357C9.30168 9.85606 9.57304 9.58059 9.86084 9.32181C10.1486 9.06302 10.3254 8.90442 10.568 8.69572L10.6502 8.67903L10.8147 8.53711L10.605 8.92111V8.94616C10.4159 9.10476 10.2268 9.27172 10.0459 9.44285C9.76627 9.70163 9.49492 9.97293 9.22356 10.2526L9.05087 10.4404L8.87819 10.6324L8.59861 10.9621C8.42182 11.175 8.24914 11.3795 8.06412 11.6467C7.31686 12.6573 6.69028 13.7544 6.1975 14.9148C6.13994 15.0442 6.09472 15.1569 6.05772 15.2571C6.02071 15.3572 5.95082 15.5242 5.89737 15.6745C5.86859 15.7538 5.84392 15.8206 5.82336 15.8832C5.75346 16.0793 5.68768 16.3006 5.61367 16.526C5.56845 16.6678 5.52733 16.8139 5.49033 16.9433L5.42865 17.1687L5.4081 17.2522C5.37932 17.3649 5.35465 17.4818 5.32587 17.5944C5.21897 18.0578 5.13263 18.5294 5.07095 18.9968C5.07095 19.1096 5.03806 19.2222 5.02573 19.335V19.3893L5.00106 19.6397C5.00106 19.7607 4.97639 19.8943 4.96817 20.0571V20.0863C4.96817 20.2282 4.96817 20.3743 4.93939 20.5037C4.93939 20.7791 4.93939 21.0045 4.93939 21.2174C4.94145 24.1593 5.74172 27.044 7.25241 29.5546C8.76309 32.0652 10.9258 34.1049 13.5032 35.4498C16.0806 36.7947 18.9732 37.3929 21.8635 37.1788C24.7538 36.9646 27.5301 35.9463 29.8879 34.2358C31.7884 32.8348 33.362 31.0266 34.4969 28.9391C34.6531 28.6552 34.7929 28.3715 34.908 28.1043V28.0751C35.8282 26.0997 36.3362 23.9526 36.4005 21.7683V21.7349C36.4005 21.5722 36.4005 21.4094 36.4005 21.2425C36.4005 20.7249 36.3759 20.2073 36.3265 19.6981V19.6105L36.5526 19.7607Z" fill="#F58220"/>
<path d="M16.3438 26.7792L16.8248 27.1965C17.0062 27.0879 17.1664 26.9464 17.2976 26.7792C17.3312 26.7421 17.3497 26.6938 17.3497 26.6435C17.3497 26.5932 17.3312 26.5448 17.2976 26.5078H16.4753C16.4219 26.5078 16.4014 26.5078 16.393 26.5412C16.3588 26.611 16.3486 26.6903 16.3643 26.7667" fill="#EB2127"/>
<path d="M17.1201 27.4017L17.4203 27.769C17.4203 27.5853 17.3873 27.3516 17.375 27.168C17.2844 27.2394 17.1993 27.3175 17.1201 27.4017Z" fill="#EB2127"/>
<path d="M16.3148 27.1738C16.3148 27.3408 16.286 27.5912 16.2695 27.7707L16.5739 27.4034C16.4936 27.3201 16.4069 27.2433 16.3148 27.1738Z" fill="#EB2127"/>
<path d="M19.695 20.2764H19.6702C19.3084 20.4652 18.9594 20.6785 18.626 20.915C18.626 20.915 18.626 20.915 18.6506 20.961C18.6962 21.0157 18.756 21.0561 18.8233 21.0778C18.959 20.9985 19.6085 20.5978 19.7853 20.4518C19.8032 20.4408 19.8173 20.4244 19.8254 20.405C19.8335 20.3854 19.8354 20.3639 19.8306 20.3432C19.8191 20.3186 19.8011 20.2978 19.7786 20.2831C19.7561 20.2683 19.7299 20.2602 19.7032 20.2598" fill="#EB2127"/>
<path d="M20.1877 19.976C20.1877 20.0135 20.1671 20.072 20.1506 20.1596C20.1135 20.2965 20.0859 20.436 20.0684 20.577C20.1343 20.5332 20.19 20.4754 20.2319 20.4077C20.2738 20.34 20.3007 20.2639 20.3109 20.1846C20.3242 20.1537 20.331 20.1203 20.331 20.0865C20.331 20.0528 20.3242 20.0195 20.3109 19.9885C20.3016 19.978 20.2902 19.9694 20.2775 19.9637C20.2647 19.958 20.2509 19.955 20.237 19.9551H20.1999" fill="#EB2127"/>
<path d="M20.6399 21.1695C20.9237 21.1695 21.3923 21.7623 21.4992 21.9418C21.6314 22.3457 21.6994 22.7683 21.7007 23.1939V23.244C22.9671 23.0812 23.1932 22.8266 23.3454 21.9334C23.3755 21.5581 23.3322 21.1805 23.2179 20.8223C23.1036 20.4641 22.9206 20.1324 22.6793 19.8465C22.4766 19.8154 22.2713 19.8056 22.0667 19.8173C21.5322 19.8173 20.8332 19.8465 20.5783 19.8548C20.5761 19.9467 20.5919 20.0381 20.6246 20.1238C20.6574 20.2095 20.7065 20.2878 20.7691 20.3541C20.8318 20.4204 20.9068 20.4735 20.9898 20.5104C21.0727 20.5472 21.162 20.5669 21.2525 20.5685C21.3472 20.5894 21.4171 20.6019 21.4293 20.6771V20.7689H21.339H21.1251C21.0119 20.7826 20.897 20.7678 20.7908 20.7255C20.6847 20.6833 20.5904 20.615 20.5166 20.5268C20.3389 20.7274 20.1494 20.917 19.9492 21.0945C19.9492 21.2406 19.9492 21.7957 19.9492 22.0378C20.0815 22.0825 20.2214 22.0995 20.3604 22.0878H20.5166C20.5166 21.9 20.5495 21.4326 20.5495 21.2531V21.1695H20.6399Z" fill="#EB2127"/>
<path d="M19.0009 21.4029C18.9788 21.468 18.9711 21.5373 18.9781 21.6057C18.9852 21.6743 19.007 21.7404 19.042 21.7994C19.1068 21.8739 19.1876 21.9321 19.2781 21.9698C19.3687 22.0074 19.4665 22.0234 19.5641 22.0165C19.5971 21.7285 19.6135 21.1817 19.6217 20.877C19.4367 21.0397 19.116 21.2943 19.0009 21.4029Z" fill="#EB2127"/>
<path d="M18.5882 22.2816C19.1627 22.7454 19.8163 23.0978 20.5165 23.321V22.4528C20.4075 22.4266 20.2952 22.4181 20.1835 22.4278C20.0725 22.4278 19.9409 22.4278 19.7929 22.4278C19.3787 22.4023 18.9874 22.226 18.6911 21.931L18.6705 21.9061V21.8769C18.6705 21.2132 18.4074 21.1506 18.2594 21.1172H18.2183C18.1459 21.1211 18.0758 21.1444 18.0151 21.1848C17.9544 21.225 17.9054 21.281 17.8729 21.3467C17.8685 21.3559 17.8662 21.3659 17.8662 21.376C17.8662 21.386 17.8685 21.396 17.8729 21.4052C17.8935 21.4052 17.951 21.4678 18.1278 21.472C18.3046 21.4761 18.3868 21.643 18.4032 21.8309C18.3967 21.9137 18.4082 21.9969 18.4366 22.0747C18.465 22.1526 18.5097 22.2232 18.5677 22.2816H18.5882Z" fill="#EB2127"/>
<path d="M18.0132 22.4064H18.0749V22.4439L18.1161 22.5107C18.1736 22.6108 18.186 22.6317 18.2435 22.6317C18.2624 22.6106 18.2752 22.5846 18.2805 22.5567C18.2966 22.4776 18.2965 22.3961 18.2802 22.317C18.264 22.2381 18.2318 22.1633 18.186 22.0975C18.005 21.8596 17.9064 21.7427 17.672 21.7344C17.5542 21.7686 17.4455 21.829 17.3538 21.9114C17.2621 21.9937 17.1896 22.0958 17.1416 22.2102C17.1312 22.2485 17.1347 22.2893 17.1513 22.3251C17.1679 22.3611 17.1965 22.3899 17.2321 22.4064C17.3124 22.3291 17.3879 22.2468 17.4582 22.1601L17.6062 22.2436C17.5787 22.3233 17.5787 22.4101 17.6062 22.4898C17.6168 22.5097 17.6314 22.5271 17.6492 22.5407C17.6669 22.5545 17.6873 22.5641 17.709 22.5691C17.7335 22.5733 17.7585 22.5733 17.7831 22.5691C17.8077 22.5691 17.8118 22.5691 17.8323 22.519C17.8434 22.4818 17.8655 22.449 17.8957 22.4251C17.926 22.4011 17.9627 22.3873 18.0009 22.3855" fill="#EB2127"/>
<path d="M20.8457 21.8301V23.5371C21.034 23.4883 21.2112 23.4033 21.3679 23.2867C21.3021 22.4519 21.1171 21.9177 20.8457 21.8384" fill="#EB2127"/>
<path d="M19.3945 23.207C19.5449 23.5282 19.7433 23.8238 19.9825 24.0836C20.0112 24.0836 20.1017 24.0127 20.3196 23.7413C20.0013 23.5816 19.6924 23.4032 19.3945 23.207Z" fill="#EB2127"/>
<path d="M21.6602 23.5801C21.3763 23.7829 21.0627 23.9392 20.731 24.0434C20.6647 24.0631 20.6001 24.0883 20.5378 24.1185C20.5131 24.1419 20.4938 24.1704 20.481 24.2021C20.4682 24.2339 20.4624 24.268 20.4637 24.3022C20.4522 24.336 20.4522 24.3727 20.4637 24.4065C20.9748 24.2563 21.4737 24.0665 21.9562 23.8388C21.8748 23.7276 21.7675 23.6386 21.6437 23.5801" fill="#EB2127"/>
<path d="M26.1823 28.8619C26.2043 29.0253 26.218 29.1896 26.2235 29.3545C26.2652 29.3455 26.3044 29.3274 26.3385 29.3015C26.3726 29.2755 26.4007 29.2424 26.4208 29.2042C26.4488 28.9897 26.457 28.7732 26.4454 28.5572C26.4393 28.4349 26.4393 28.3122 26.4454 28.1899C26.4551 28.1442 26.4688 28.0994 26.4866 28.0564C26.5318 27.9228 26.6223 27.639 26.5524 27.543C26.5524 27.543 26.5236 27.5012 26.4414 27.5012H26.0302C25.4538 27.5147 24.8774 27.4769 24.3075 27.3885C23.8898 27.274 23.4611 27.2054 23.0288 27.184C22.9506 27.177 22.8718 27.1884 22.7985 27.2173C22.5991 27.3473 22.4406 27.5328 22.3422 27.7516V27.8142L22.2805 27.8351H22.2354C22.2127 27.8343 22.1905 27.8283 22.1706 27.8174C22.1506 27.8065 22.1334 27.7912 22.1202 27.7725C22.0708 27.7016 22.079 27.5722 22.1531 27.3552L22.2024 27.2173C22.3692 26.7937 22.4838 26.3507 22.5436 25.8984C22.1819 26.0654 21.4212 26.5037 21.2197 26.6206C21.3179 26.9279 21.4374 27.2277 21.5775 27.5179C21.8858 28.169 22.0544 28.3235 22.0956 28.3276C22.2271 28.3276 22.6383 28.2608 23.1111 28.1816C23.8554 28.0376 24.608 27.9414 25.3642 27.8936C25.4637 27.8896 25.5633 27.8994 25.6602 27.9228H25.6848V27.9436L25.7341 28.0104C25.9541 28.2419 26.1065 28.531 26.1741 28.8453" fill="#EB2127"/>
<path d="M17.0721 23.4357C17.0146 23.4357 16.9199 23.5067 16.9199 23.7697C16.9199 23.7988 16.9487 23.8365 16.9652 23.8365C16.9816 23.8365 17.0104 23.8114 17.0474 23.7028V23.6486H19.1484C19.0995 23.5701 19.0568 23.4877 19.021 23.4023L17.0721 23.4357Z" fill="#EB2127"/>
<path d="M18.9344 19.988C18.9344 19.988 17.8242 20.2385 17.8572 19.6625C17.8572 19.4705 17.9846 19.3953 18.0955 19.4162C18.0955 19.3119 17.8777 18.9988 18.3628 18.8903C18.5047 18.7161 18.6236 18.5239 18.7165 18.3185C18.7616 18.1724 18.8973 17.9721 19.3373 18.0681C19.7194 18.1804 20.06 18.4057 20.3158 18.715C20.5707 18.715 20.838 18.7651 20.7269 18.8151C20.6159 18.8653 20.5749 18.9654 20.5954 18.9822C20.6159 18.9988 20.7557 19.0782 20.3076 19.0865C20.3076 19.1825 20.4063 19.2075 20.4844 19.2534C20.5625 19.2993 20.4638 19.3577 20.4844 19.3786C20.505 19.3995 20.5501 19.6208 20.324 19.5331C20.0979 19.4454 20.0815 19.3662 20.0198 19.3745C19.9581 19.3828 19.7937 19.412 19.8183 19.4746C19.843 19.5373 20.065 19.6834 19.7813 19.7376C19.7238 19.7877 19.8676 19.8711 19.7607 19.9129C19.6539 19.9546 19.1769 20.3303 18.9384 20.4263C18.7165 20.4263 18.6466 20.3637 18.6671 20.2677C18.6877 20.1717 18.7864 20.1091 18.9302 20.0923C18.9302 20.0297 18.9302 19.9797 18.9097 19.988" fill="#EB2127"/>
<path d="M16.6232 24.1059H15.6694L15.6035 23.7344H16.6232V24.1059Z" fill="#EB2127"/>
<path d="M23.1319 24.0797H26.6719V23.5371H22.4248L23.1319 24.0797Z" fill="#EB2127"/>
<path d="M19.5096 25.1311H19.5302C20.0344 25.211 20.5329 25.3238 21.0226 25.4692C21.2077 25.3774 21.3187 25.2521 21.3187 25.2104L21.2735 25.0894H21.4009C21.4823 25.1015 21.5606 25.1299 21.6312 25.1729C21.7091 25.2199 21.796 25.2497 21.8861 25.2605C21.905 25.2648 21.9247 25.2648 21.9436 25.2605C22.3746 24.9936 22.7868 24.6965 23.177 24.3714C22.9634 24.194 22.7134 24.0671 22.4452 24C22.3376 24.0359 22.2318 24.0777 22.1286 24.1252C21.6442 24.373 21.1186 24.5273 20.5786 24.5802C20.416 24.5898 20.2535 24.5582 20.1058 24.4883C19.9 24.5984 19.7247 24.7591 19.596 24.9558C19.5137 25.0726 19.5055 25.1311 19.5096 25.1437" fill="#EB2127"/>
<path d="M19.6945 25.4665C19.789 25.4665 20.8621 25.8839 21.1293 25.8297C21.3966 25.7754 21.4501 25.5125 21.6022 25.5292C21.7543 25.5459 21.8284 25.6836 22.0873 25.5292C22.3692 25.3321 22.6321 25.1084 22.8727 24.8613C22.8727 25.0325 22.8727 25.4999 21.8818 25.9508C20.8909 26.4016 18.5926 27.0694 18.5432 27.3866C18.7436 27.3869 18.9401 27.3306 19.1107 27.2237C19.2296 27.3392 19.3186 27.4826 19.3694 27.6414C19.4204 27.8002 19.4317 27.9694 19.4025 28.1337C19.345 28.6346 18.9667 29.5027 18.9667 29.7449C18.9667 29.9869 18.9667 31.0638 18.9667 31.1723C18.9667 31.2808 19.1641 31.8985 18.8722 31.8527C18.68 31.8147 18.4833 31.8049 18.2884 31.8234C18.1732 31.8234 17.9388 32.0362 17.7374 32.0071C17.5359 31.9779 17.1824 31.8735 17.1946 31.7733C17.207 31.6731 17.4373 31.669 17.6346 31.5939C17.832 31.5187 17.9636 31.2975 18.3417 31.1765C18.3417 30.9176 18.2143 29.052 18.2143 28.6721C18.2143 28.2923 18.0828 27.4659 18.2514 27.1194C18.42 26.773 19.2833 25.4499 19.6945 25.4665Z" fill="#EB2127"/>
<path d="M19.5427 23.9214C19.5718 24.0273 19.6254 24.1245 19.6989 24.2052L17.4992 24.0633C17.4992 24.0633 17.2443 23.9006 17.343 23.8672L19.5427 23.9214Z" fill="#EB2127"/>
<path d="M15.0237 24.123H15.4761C15.4761 24.123 15.6199 24.0603 15.4761 23.8851C15.3321 23.7097 15.0443 23.6096 15.2499 23.3008C15.0402 23.2631 14.7237 23.1964 14.777 23.8851H14.5591C14.5224 23.7607 14.4439 23.6533 14.3372 23.5816C14.2306 23.5099 14.1025 23.4785 13.9753 23.4928C13.3717 23.5946 12.7822 23.7697 12.2197 24.0145C12.7987 24.1839 13.3879 24.3149 13.9836 24.4068C14.1013 24.3957 14.2152 24.358 14.3169 24.2966C14.4186 24.2353 14.5056 24.1518 14.5715 24.052H14.7606C14.7991 24.1873 14.8558 24.3166 14.9292 24.436C14.9292 24.6238 14.9292 24.8534 14.9292 24.8534C14.8663 24.8813 14.8144 24.9297 14.7815 24.9909C14.7487 25.0522 14.7371 25.1228 14.7483 25.1915C14.777 25.4503 14.9169 25.442 14.958 25.442C14.9991 25.442 15.0608 25.3584 15.2376 25.3584C15.2769 25.2764 15.2844 25.1823 15.2585 25.0949C15.2326 25.0075 15.1752 24.9332 15.0978 24.8868C15.0978 24.7408 15.0978 24.578 15.0978 24.578C15.0978 24.578 15.2828 24.4611 15.2582 24.3526C15.2334 24.244 15.0485 24.2523 15.0485 24.1063" fill="#EB2127"/>
<path d="M17.6889 26.2655C17.7867 26.1852 17.8572 26.0757 17.8904 25.9525C17.8904 25.9525 17.8904 24.934 17.8904 24.6377C17.8904 24.3414 17.3312 24.0826 17.3065 24.0742H17.2736L17.249 24.0993C17.1638 24.1827 17.0568 24.2392 16.9406 24.2621C16.873 24.2666 16.8054 24.2542 16.7437 24.2258C16.682 24.1974 16.6281 24.1539 16.5871 24.0993H16.5623C16.1142 24.0993 15.8962 24.6502 15.884 24.6711V24.692C15.8614 25.0965 15.8614 25.502 15.884 25.9066C15.9256 26.0334 15.9928 26.15 16.0813 26.2489C15.9909 26.5703 15.5345 28.3358 16.1471 28.5361V28.7907H17.6231V28.5195C18.1823 28.2607 17.8245 26.7581 17.7053 26.3198L17.6889 26.2655ZM15.9949 24.6545C16.0238 24.5877 16.2088 24.1828 16.5336 24.1661C16.5856 24.2237 16.6494 24.2691 16.7203 24.2994C16.7912 24.3296 16.8678 24.3439 16.9447 24.3414C17.0779 24.3238 17.2026 24.2656 17.3024 24.1745C17.4586 24.2413 17.7752 24.4165 17.7752 24.5919C17.7752 24.8757 17.7752 25.798 17.7752 25.8983C17.752 25.9849 17.705 26.0631 17.6395 26.1237H17.3477V25.5685H16.3608V26.1237H16.1594C16.0808 26.0385 16.0205 25.9375 15.9827 25.8273C15.9591 25.4381 15.9591 25.0478 15.9827 24.6586L15.9949 24.6545ZM17.0393 28.3192H16.7103C16.6722 28.3192 16.6356 28.3038 16.6086 28.2763C16.5816 28.2489 16.5665 28.2118 16.5665 28.173C16.5665 28.1342 16.5816 28.0971 16.6086 28.0697C16.6356 28.0423 16.6722 28.0269 16.7103 28.0269H17.0393C17.0774 28.0269 17.1141 28.0423 17.141 28.0697C17.168 28.0971 17.1832 28.1342 17.1832 28.173C17.1832 28.2118 17.168 28.2489 17.141 28.2763C17.1141 28.3038 17.0774 28.3192 17.0393 28.3192ZM17.5656 28.3567L16.8419 27.5219L16.1758 28.3567C15.7278 28.2106 16.0114 26.8081 16.1758 26.228L17.5696 26.2489C17.7259 26.829 17.9809 28.1313 17.5696 28.3358" fill="#EB2127"/>
<path d="M17.2724 25.3986H17.3628V25.3068C17.3628 25.2825 17.3533 25.2591 17.3364 25.2419C17.3194 25.2246 17.2963 25.215 17.2724 25.215H16.4501C16.4378 25.2143 16.4257 25.2163 16.4142 25.2207C16.4027 25.225 16.3923 25.2317 16.3834 25.2403C16.3746 25.2489 16.3675 25.2593 16.3627 25.2706C16.358 25.282 16.3555 25.2943 16.3555 25.3068V25.3986H17.2682H17.2724Z" fill="#EB2127"/>
<path d="M16.0765 28.8672H15.9942V28.9673C15.9937 28.9802 15.9957 28.9932 16.0003 29.0053C16.0047 29.0175 16.0116 29.0286 16.0204 29.038C16.0293 29.0473 16.0399 29.0547 16.0516 29.0598C16.0634 29.0649 16.0761 29.0675 16.0888 29.0675H17.6183C17.6445 29.0675 17.6696 29.057 17.6881 29.0382C17.7066 29.0193 17.717 28.9939 17.717 28.9673V28.8672H16.0723H16.0765Z" fill="#EB2127"/>
</svg>
