<svg xmlns="http://www.w3.org/2000/svg" style="display: none;">
   <!-- Define SVG symbols here -->
   <symbol id="icon-plus" viewBox="0 0 12 12">
      <path d="M4.84615 0H7.15385V4.84615H12V7.15385H7.15385V12H4.84615V7.15385H0V4.84615H4.84615V0Z" fill="white"></path>
   </symbol>
   <symbol id="flag-chf" viewBox="0 0 512 512">
      <circle cx="256" cy="256" r="256" fill="#d80027"></circle>
      <path d="M389.6 211.5h-89v-89h-89.1v89h-89v89h89v89h89v-89h89z" fill="#eee"></path>
   </symbol>
   <symbol id="flag-jpy" viewBox="0 0 512 512">
      <circle cx="256" cy="256" r="256" fill="#eee"></circle>
      <circle cx="256" cy="256" r="111.3" fill="#d80027"></circle>
   </symbol>
   <symbol id="icon-close-tiny" viewBox="0 0 6 6">
      <path d="M0.181221 0.231785C0.422849 -0.00855682 0.814606 -0.00855664 1.05623 0.231785L5.79908 4.94939C6.04071 5.18973 6.04071 5.5794 5.79908 5.81974C5.55745 6.06009 5.1657 6.06009 4.92407 5.81974L0.181221 1.10214C-0.0604062 0.8618 -0.0604079 0.472128 0.181221 0.231785Z" fill="currentColor"></path>
      <path d="M0.200989 5.76821C-0.0406389 5.52787 -0.0406388 5.1382 0.200989 4.89786L4.94384 0.180257C5.18546 -0.0600847 5.57722 -0.0600864 5.81885 0.180256C6.06048 0.420599 6.06048 0.81027 5.81885 1.05061L1.076 5.76821C0.834375 6.00856 0.442618 6.00856 0.200989 5.76821Z" fill="currentColor"></path>
   </symbol>
   <symbol id="icon-pin" viewBox="0 0 8 8">
      <path d="M7.83505 2.86393L5.04669 0.07557C4.94603 -0.02519 4.78259 -0.02519 4.68193 0.07557L4.67011 0.0873846C4.49914 0.25831 4.40493 0.485678 4.40493 0.72744C4.40493 0.883198 4.4445 1.03266 4.51802 1.1652L2.60046 2.66914C2.37717 2.46958 2.09217 2.36036 1.79031 2.36036C1.46502 2.36036 1.15923 2.48702 0.929281 2.71702L0.911792 2.73451C0.811032 2.83522 0.811032 2.99856 0.911792 3.09927L2.58225 4.76973L0.955335 6.39659C0.922781 6.43007 0.955335 6.39659 0.646431 6.85511C0.1643 7.45632 0.068957 7.56647 0.0640041 7.57214C-0.0255087 7.67409 -0.0205558 7.82784 0.0752513 7.92411C0.125451 7.97451 0.191644 8 0.258043 8C0.318561 8 0.379234 7.97885 0.42804 7.93618C0.432322 7.93247 0.539944 7.83893 1.14507 7.35375C1.60607 7.04222 1.57001 7.07735 1.60607 7.04222L3.23036 5.41793L4.81135 6.99893C4.86171 7.04934 4.92775 7.07451 4.99373 7.07451C5.05972 7.07451 5.12581 7.04934 5.17611 6.99893L5.1936 6.98144C5.4236 6.75149 5.55026 6.44566 5.55026 6.12042C5.55026 5.81855 5.44099 5.53355 5.24148 5.31026L6.74542 3.3927C6.87796 3.46622 7.02742 3.5058 7.18318 3.5058C7.42499 3.5058 7.65231 3.41164 7.82324 3.24061L7.83505 3.2288C7.93581 3.12798 7.93581 2.96464 7.83505 2.86393Z"></path>
   </symbol>
   <symbol id="icon-caret" viewBox="0 0 9 6">
      <path d="M1.08341 0.679043C0.83589 0.440319 0.443217 0.440319 0.195695 0.679043C-0.0690109 0.93434 -0.063765 1.35935 0.20285 1.60115L4.05975 5.32096C4.18042 5.43734 4.34284 5.5 4.5036 5.5C4.6698 5.5 4.82584 5.43826 4.94746 5.32096L8.80436 1.60115C9.06521 1.34957 9.06521 0.930626 8.80436 0.679043C8.55684 0.440319 8.16416 0.440319 7.91664 0.679043L4.49668 3.97745L1.08341 0.679043Z" fill="currentColor"></path>
   </symbol>
   <symbol id="icon-pair-information" viewBox="0 0 16 16">
      <circle cx="8" cy="8" r="8" fill="#026FD3"></circle>
      <g clip-path="url(#clip0)">
         <path d="M7.99331 6.44446C7.42876 6.44446 7.02734 6.69285 7.02734 7.05886V12.0392C7.02734 12.3529 7.4288 12.6667 7.99331 12.6667C8.53273 12.6667 8.97179 12.3529 8.97179 12.0392V7.05886C8.97179 6.69285 8.53273 6.44446 7.99331 6.44446Z" fill="white"></path>
         <path d="M8.00552 3.33337C7.45679 3.33337 7.02734 3.78209 7.02734 4.29879C7.02734 4.81549 7.45679 5.27782 8.00552 5.27782C8.54234 5.27782 8.97179 4.81549 8.97179 4.29879C8.97179 3.78214 8.5423 3.33337 8.00552 3.33337Z" fill="white"></path>
      </g>
   </symbol>
</svg>