<!-- icons.svg -->
<svg xmlns="http://www.w3.org/2000/svg" style="display: none;">

   <!-- Trade Icon -->
   <symbol id="icon-trade-sidebar" viewBox="0 0 20 20">
      <path d="M5.83347 13.6668H2.1668V18.0002H18.1668V10.0002H16.1668L12.8335 5.66682L10.1668 12.3335L7.1668 10.3335L5.83347 13.6668Z" fill="currentColor"></path>
      <path fill-rule="evenodd" clip-rule="evenodd" d="M0.83346 3.3335C0.83346 1.95278 1.95275 0.833496 3.33346 0.833496H16.6668C18.0475 0.833496 19.1668 1.95278 19.1668 3.3335V16.6668C19.1668 18.0475 18.0475 19.1668 16.6668 19.1668H3.33346C1.95275 19.1668 0.83346 18.0475 0.83346 16.6668V3.3335ZM3.33346 2.50016C2.87322 2.50016 2.50013 2.87326 2.50013 3.3335V16.6668C2.50013 17.1271 2.87322 17.5002 3.33346 17.5002H16.6668C17.127 17.5002 17.5001 17.1271 17.5001 16.6668V3.3335C17.5001 2.87326 17.127 2.50016 16.6668 2.50016H3.33346Z" fill="currentColor"></path>
   </symbol>

   <!-- Help Icon -->
   <symbol id="icon-help" viewBox="0 0 18 18">
      <path fill-rule="evenodd" clip-rule="evenodd" d="M18 9C18 4.0373 13.9627 0 9 0C4.0373 0 0 4.0373 0 9C0 10.6174 0.430507 12.1921 1.248 13.5746L0.0330882 17.9667L4.42537 16.752C5.80788 17.5695 7.38263 18 9 18C13.9627 18 18 13.9627 18 9ZM8.23751 9.41667C8.08657 9.78853 8.0111 10.2881 8.0111 10.9153H9.71587L9.74251 10.5054C9.79134 10.0663 9.98446 9.68324 10.3219 9.35618L10.8613 8.83871C11.283 8.42652 11.5782 8.05242 11.7469 7.7164C11.9156 7.3759 12 7.01523 12 6.63441C12 5.7966 11.7403 5.14919 11.2209 4.6922C10.7014 4.23073 9.97114 4 9.02997 4C8.09767 4 7.36071 4.24194 6.81909 4.72581C6.28191 5.20968 6.00888 5.87948 6 6.73522H7.93119C7.94007 6.37679 8.04218 6.09677 8.23751 5.89516C8.43729 5.68907 8.70144 5.58602 9.02997 5.58602C9.72253 5.58602 10.0688 5.96461 10.0688 6.72177C10.0688 6.97267 10.0022 7.21237 9.86903 7.44086C9.73585 7.66487 9.46726 7.95833 9.06326 8.32124C8.66371 8.67966 8.38846 9.0448 8.23751 9.41667ZM8.11765 12.2392C7.91787 12.4319 7.81798 12.6783 7.81798 12.9785C7.81798 13.2742 7.91565 13.5184 8.11099 13.711C8.31077 13.9037 8.5727 14 8.89678 14C9.22087 14 9.48058 13.9037 9.67592 13.711C9.87569 13.5184 9.97558 13.2742 9.97558 12.9785C9.97558 12.6783 9.87347 12.4319 9.66926 12.2392C9.46948 12.0421 9.21199 11.9435 8.89678 11.9435C8.58158 11.9435 8.32187 12.0421 8.11765 12.2392Z" fill="currentColor"></path>
   </symbol>

   <!-- Profile Icon -->
   <symbol id="icon-profile" viewBox="0 0 18 20">
      <path d="M8.9993 9.52401C10.3171 9.52401 11.4418 9.05881 12.3739 8.12881C13.306 7.19881 13.7721 6.07656 13.7721 4.7619C13.7721 3.44745 13.306 2.32516 12.3739 1.39494C11.4415 0.464979 10.3167 0 8.9993 0C7.68187 0 6.5569 0.464979 5.62487 1.39494C4.69267 2.32516 4.22656 3.4474 4.22656 4.7619C4.22656 6.07656 4.69267 7.19881 5.62487 8.12881C6.55717 9.05881 7.68183 9.52401 8.9993 9.52401Z" fill="currentColor"></path>
      <path d="M17.7061 15.5049C17.677 15.0875 17.619 14.6368 17.5321 14.1531C17.4451 13.6694 17.3352 13.2211 17.2026 12.8076C17.07 12.3943 16.8918 11.9913 16.6681 11.5985C16.4445 11.2058 16.1876 10.8711 15.8974 10.594C15.6072 10.317 15.2531 10.096 14.835 9.93068C14.4163 9.76541 13.9544 9.68262 13.4489 9.68262C13.3744 9.68262 13.2004 9.77149 12.9269 9.94927C12.6537 10.127 12.345 10.3255 12.0011 10.5447C11.6573 10.7635 11.2096 10.9621 10.6589 11.1395C10.1078 11.3173 9.55482 11.4062 8.99948 11.4062C8.44435 11.4062 7.89131 11.3173 7.34037 11.1395C6.78946 10.9621 6.3419 10.7635 5.99804 10.5447C5.65422 10.3255 5.34562 10.1271 5.07223 9.94927C4.79872 9.77149 4.6248 9.68262 4.55023 9.68262C4.04482 9.68262 3.58285 9.76541 3.16446 9.93068C2.74598 10.096 2.3918 10.3172 2.10174 10.594C1.81177 10.8711 1.55489 11.2058 1.33126 11.5985C1.10763 11.9913 0.9295 12.3945 0.796899 12.8076C0.664343 13.2211 0.55451 13.6694 0.467532 14.1531C0.380467 14.6368 0.322482 15.0872 0.293446 15.5049C0.264453 15.9226 0.25 16.3504 0.25 16.7886C0.25 17.7805 0.552508 18.564 1.15731 19.1386C1.76223 19.713 2.56602 20.0002 3.56857 20.0002H14.4314C15.4339 20.0002 16.2375 19.713 16.8426 19.1386C17.4477 18.564 17.75 17.7806 17.75 16.7886C17.7499 16.3504 17.7355 15.9226 17.7061 15.5049Z" fill="currentColor"></path>
   </symbol>

   <!-- Tournaments Icon -->
   <symbol id="icon-tournaments" viewBox="0 0 20 20">
      <path d="M10.0887 13.1161C7.08753 13.1161 5.47408 9.05965 4.39544 5.76737C4.16856 5.07485 4.05957 4.34988 4.05957 3.62113L4.05957 0.90278C4.05957 0.863504 4.09141 0.831665 4.13068 0.831665H16.0468C16.0861 0.831665 16.1179 0.863504 16.1179 0.90278V3.60546C16.1179 4.34446 16.0056 5.07914 15.7444 5.77044C14.8933 8.0227 12.6821 13.1161 10.0887 13.1161Z"></path>
      <path d="M11.4677 14.4503C11.4677 14.4466 11.4647 14.4434 11.4609 14.4434C11.4602 14.4434 11.4595 14.4435 11.4588 14.4437L10.523 14.7556C10.1869 14.8677 9.82135 14.8535 9.4949 14.7156L8.89438 14.462C8.87239 14.4527 8.84758 14.4682 8.84485 14.492C8.535 17.1831 6.25882 17.7188 5.97205 17.7758C5.95494 17.7793 5.94238 17.7942 5.94238 17.8116V19.0566C5.94238 19.0763 5.9583 19.0922 5.97794 19.0922H10.5614H10.7888H14.2048C14.2244 19.0922 14.2404 19.0763 14.2404 19.0566V17.8119C14.2404 17.7944 14.2278 17.7794 14.2106 17.7762C13.9121 17.7206 11.4719 17.1828 11.4677 14.4503Z"></path>
      <path fill-rule="evenodd" clip-rule="evenodd" d="M17.9469 4.74829H16.8061V2.74829H18.9232C19.4886 2.74829 19.9469 3.20662 19.9469 3.772V5.2067C19.9469 7.27669 19.5087 8.90174 18.6862 10.0368C17.8408 11.2035 16.6394 11.7766 15.3477 11.7766V9.77659C16.0004 9.77659 16.5987 9.50923 17.0667 8.86329C17.5577 8.18568 17.9469 7.02578 17.9469 5.2067V4.74829Z"></path>
      <path fill-rule="evenodd" clip-rule="evenodd" d="M2.25035 4.74829H3.3912V2.74829H1.27406C0.708683 2.74829 0.250354 3.20662 0.250354 3.772V5.2067C0.250354 7.27669 0.688533 8.90174 1.51102 10.0368C2.35646 11.2036 3.55782 11.7766 4.84961 11.7766V9.77659C4.19686 9.77659 3.5986 9.50923 3.13054 8.86329C2.63953 8.18568 2.25035 7.02578 2.25035 5.2067V4.74829Z"></path>
   </symbol>

   <!-- Market Icon -->
   <symbol id="icon-market" viewBox="0 0 20 20">
      <path d="M8.99119 7.57488C7.40163 6.90082 5.52808 6.90082 3.93847 7.57488C1.61718 8.55883 0 10.8429 0 13.5517C0 17.0557 2.82308 19.997 6.48436 19.997C10.031 19.997 12.9297 17.1156 12.9297 13.5517C12.9297 10.8348 11.3048 8.55558 8.99119 7.57488ZM6.07011 12.755C6.45557 13.1405 6.8769 12.6305 7.72721 13.4807C8.61869 14.3722 8.30553 15.8778 7.151 16.3503C7.12534 16.3608 7.09635 16.3569 7.07034 16.3662V17.0673C7.07034 17.3912 6.80827 17.6532 6.4844 17.6532C6.16054 17.6532 5.89847 17.3912 5.89847 17.0673V16.3644C5.59147 16.2612 5.29901 16.1 5.03616 15.8456C4.80327 15.6213 4.79698 15.2499 5.02187 15.0176C5.24616 14.7853 5.61866 14.7785 5.84983 15.0033C6.68596 15.8098 7.41838 14.8289 6.8987 14.3092C6.51171 13.9223 5.94819 14.3292 5.24159 13.6226C5.01585 13.3969 4.72655 12.8939 4.72655 12.3408C4.72655 11.6311 5.15476 10.9523 5.89843 10.6887V9.99703C5.89843 9.67316 6.1605 9.41109 6.48436 9.41109C6.80823 9.41109 7.0703 9.67316 7.0703 9.99703V10.6803C7.46706 10.8128 7.82768 11.0699 8.14205 11.4447C8.35034 11.6925 8.31772 12.0621 8.06995 12.2698C7.82163 12.4792 7.45198 12.446 7.24483 12.1977C6.37264 11.1598 5.5169 12.2019 6.07011 12.755Z"></path>
      <path d="M11.9453 0.197319C10.3677 0.469272 8.24219 1.34275 8.24219 2.92782V6.1075V6.11016C8.64101 6.20434 9.0332 6.32481 9.41406 6.48403V6.48254C9.42578 6.48254 9.43754 6.49426 9.44926 6.49426C10.1968 6.81465 10.9367 7.28695 11.6496 7.94937C11.8221 7.98422 11.9835 8.03 12.1563 8.06453C14.6503 8.53961 17.605 8.00512 18.5703 6.98645C18.6406 6.91613 18.7344 6.85754 18.8281 6.84582V8.27547C17.886 8.95597 15.4281 9.63664 12.8476 9.34191C13.4356 10.2657 13.6588 10.8428 13.8906 11.7443C15.0993 11.7638 16.4993 11.6128 17.5937 11.1231C18.0039 10.9357 18.3593 10.7247 18.5703 10.5021C18.6406 10.4318 18.7343 10.3732 18.8281 10.3614V11.7911C18.1484 12.282 16.405 12.9278 14.078 12.9278C14.1262 13.7451 14.0953 14.4346 13.8915 15.2989C15.104 15.3182 16.5009 15.1668 17.5937 14.6778C18.0474 14.4704 18.8281 14.0516 18.8281 13.5528V15.3457C17.9753 15.9617 15.7951 16.603 13.5178 16.4708C13.5141 16.4798 13.5039 16.5077 13.5039 16.5176C13.0478 17.5716 12.5478 18.1075 12.443 18.2403C12.3371 18.3714 12.2496 18.5149 12.1328 18.6387C12.1273 18.6382 12.1222 18.6363 12.1167 18.6357C11.8888 18.8877 12.0444 18.8524 11.0753 19.5912C11.0846 19.5938 11.0923 19.597 11.1016 19.5996C12.0145 19.8489 12.8448 19.9981 14.1016 19.9981C16.565 19.9981 20 19.1001 20 17.0684V2.92782C20 0.662162 15.5557 -0.481429 11.9453 0.197319ZM18.5758 3.43591C18.051 3.98489 16.851 4.36009 16.0459 4.51165C14.8157 4.74282 13.3874 4.74282 12.1572 4.51165C11.3589 4.36137 10.2279 4.02427 9.66695 3.43591C9.49933 3.2597 9.41406 3.0886 9.41406 2.92782C9.41406 2.43864 10.1629 2.00462 10.6105 1.8063C11.6399 1.34747 12.9574 1.17001 14.1016 1.17001C15.2408 1.17001 16.5591 1.34599 17.5931 1.8063C18.0599 2.01337 18.8281 2.41798 18.8281 2.92782C18.8281 3.0886 18.7428 3.2597 18.5758 3.43591Z"></path>
   </symbol>

   <!-- More Icon -->
   <symbol id="icon-more-sidebar" viewBox="0 0 20 20">
      <path d="M4.61549 9.83333C4.61549 11.122 3.5823 12.1667 2.30779 12.1667C1.03329 12.1667 0.000101089 11.122 0.000101089 9.83333C0.000101089 8.54467 1.03329 7.5 2.30779 7.5C3.5823 7.5 4.61549 8.54467 4.61549 9.83333Z" fill="currentColor"></path>
      <path d="M12.3079 9.83333C12.3079 11.122 11.2747 12.1667 10.0002 12.1667C8.72568 12.1667 7.69249 11.122 7.69249 9.83333C7.69249 8.54467 8.72568 7.5 10.0002 7.5C11.2747 7.5 12.3079 8.54467 12.3079 9.83333Z" fill="currentColor"></path>
      <path d="M20.0001 9.83333C20.0001 11.122 18.9669 12.1667 17.6924 12.1667C16.4179 12.1667 15.3847 11.122 15.3847 9.83333C15.3847 8.54467 16.4179 7.5 17.6924 7.5C18.9669 7.5 20.0001 8.54467 20.0001 9.83333Z" fill="currentColor"></path>
   </symbol>

</svg>