<svg xmlns="http://www.w3.org/2000/svg" xmlns:xlink="http://www.w3.org/1999/xlink" class="icon-logo-dark">
    <symbol id="icon-logo-dark" viewBox="0 0 102 26">
        <path d="M43.3671 12.9791C43.3671 13.5425 43.305 14.085 43.2015 14.6067C43.0772 15.1284 42.9115 15.6083 42.7044 16.0674C42.4766 16.5264 42.2281 16.9229 41.8967 17.3194C41.586 17.695 41.2339 18.0288 40.8197 18.321L44.0299 21.8266H42.1038C41.8346 21.8266 41.5653 21.7849 41.3582 21.7223C41.1304 21.6388 40.9233 21.5136 40.7369 21.3049L38.8936 19.26C38.6037 19.3434 38.293 19.406 37.9824 19.4478C37.6717 19.4895 37.3403 19.5104 37.009 19.5104C36.0563 19.5104 35.1864 19.3434 34.3994 19.0304C33.6124 18.6966 32.929 18.2584 32.3698 17.6741C31.8106 17.0898 31.3757 16.4012 31.065 15.6083C30.7544 14.8154 30.6094 13.9598 30.6094 13.0208C30.6094 12.0818 30.7544 11.2263 31.065 10.4333C31.3757 9.6404 31.8106 8.95179 32.3698 8.36752C32.929 7.78325 33.6124 7.34505 34.3994 7.01118C35.1864 6.67731 36.0563 6.53125 37.009 6.53125C37.9617 6.53125 38.8315 6.69818 39.6185 7.03205C40.4055 7.36592 41.0683 7.80412 41.6274 8.38839C42.1866 8.97266 42.6216 9.66126 42.9322 10.4542C43.2222 11.1845 43.3671 12.0609 43.3671 12.9791ZM40.9647 12.9791C40.9647 12.2905 40.8612 11.6645 40.6955 11.1011C40.5091 10.5377 40.2398 10.0786 39.9085 9.68213C39.5771 9.28567 39.1422 8.99353 38.6658 8.80573C38.1688 8.59706 37.6096 8.49273 37.009 8.49273C36.3876 8.49273 35.8285 8.59706 35.3521 8.80573C34.8551 9.01439 34.4408 9.30653 34.0888 9.68213C33.7367 10.0786 33.4674 10.5377 33.281 11.1011C33.0947 11.6436 33.0118 12.2696 33.0118 12.9791C33.0118 13.6677 33.1154 14.2937 33.281 14.8571C33.4674 15.3996 33.7367 15.8796 34.0888 16.2552C34.4408 16.6308 34.8551 16.9229 35.3521 17.1316C35.8492 17.3402 36.4084 17.4446 37.009 17.4446C37.6303 17.4446 38.1895 17.3402 38.6658 17.1316C39.1629 16.9229 39.5771 16.6308 39.9085 16.2552C40.2605 15.8796 40.5091 15.3996 40.6955 14.8571C40.8612 14.3146 40.9647 13.6886 40.9647 12.9791Z" fill="#ffffff"></path>
        <path d="M50.2831 17.4232C50.7388 17.4232 51.1323 17.3398 51.5051 17.1937C51.8571 17.0476 52.1678 16.8181 52.4163 16.5468C52.6649 16.2756 52.8513 15.9417 52.9755 15.5452C53.0998 15.1488 53.1826 14.7106 53.1826 14.2306V6.61426H55.5229V14.2306C55.5229 14.9818 55.3987 15.6913 55.1709 16.3173C54.9223 16.9642 54.591 17.5067 54.1353 17.9867C53.6797 18.4457 53.1412 18.8213 52.4992 19.0717C51.8572 19.343 51.1323 19.4682 50.3246 19.4682C49.5168 19.4682 48.792 19.343 48.1499 19.0717C47.5079 18.8213 46.9487 18.4457 46.5138 17.9867C46.0582 17.5276 45.7061 16.9642 45.4783 16.3173C45.2297 15.6704 45.1055 14.9818 45.1055 14.2306V6.61426H47.4458V14.2098C47.4458 14.6897 47.5079 15.1279 47.6322 15.5244C47.7564 15.9208 47.9428 16.2547 48.1914 16.526C48.4399 16.7972 48.7298 17.0268 49.1026 17.1728C49.434 17.3606 49.8275 17.4232 50.2831 17.4232Z" fill="#ffffff"></path>
        <path d="M70.0011 12.9788C70.0011 13.9178 69.8562 14.7734 69.5455 15.5663C69.2348 16.3592 68.7999 17.0478 68.2407 17.6321C67.6815 18.2164 67.0188 18.6546 66.2318 18.9885C65.4448 19.3223 64.5749 19.4684 63.6223 19.4684C62.6696 19.4684 61.7997 19.3015 61.0127 18.9885C60.2257 18.6546 59.5423 18.2164 58.9831 17.6321C58.4239 17.0478 57.989 16.3592 57.6783 15.5663C57.3676 14.7734 57.2227 13.9178 57.2227 12.9788C57.2227 12.0398 57.3676 11.1843 57.6783 10.3913C57.989 9.59841 58.4239 8.90981 58.9831 8.32554C59.5423 7.74127 60.2257 7.30307 61.0127 6.9692C61.7997 6.63533 62.6696 6.48926 63.6223 6.48926C64.5749 6.48926 65.4448 6.65619 66.2318 6.99006C67.0188 7.32393 67.6815 7.76213 68.2407 8.3464C68.7999 8.93067 69.2348 9.61928 69.5455 10.4122C69.8562 11.1843 70.0011 12.0607 70.0011 12.9788ZM67.5987 12.9788C67.5987 12.2902 67.4951 11.6642 67.3295 11.1008C67.1431 10.5374 66.8738 10.0783 66.5425 9.68188C66.2111 9.28541 65.7762 8.99327 65.2998 8.80547C64.8235 8.61767 64.2436 8.49247 63.643 8.49247C63.0216 8.49247 62.4625 8.5968 61.9861 8.80547C61.4891 9.01414 61.0748 9.30628 60.7228 9.68188C60.3707 10.0783 60.1014 10.5374 59.915 11.1008C59.7286 11.6434 59.6458 12.2694 59.6458 12.9788C59.6458 13.6674 59.7494 14.2934 59.915 14.8568C60.1014 15.3994 60.3707 15.8793 60.7228 16.2549C61.0748 16.6305 61.4891 16.9226 61.9861 17.1313C62.4832 17.34 63.0424 17.4443 63.643 17.4443C64.2643 17.4443 64.8235 17.34 65.2998 17.1313C65.7969 16.9226 66.2111 16.6305 66.5425 16.2549C66.8945 15.8793 67.1431 15.3994 67.3295 14.8568C67.5159 14.3143 67.5987 13.6883 67.5987 12.9788Z" fill="#ffffff"></path>
        <path d="M80.0661 6.63574V8.57635H76.2761V19.3436H73.9358V8.57635H70.125V6.63574H80.0661Z" fill="#ffffff"></path>
        <path d="M89.488 6.63574V8.51375H83.8962V12.0402H88.3075V13.8556H83.8962V17.4447H89.488V19.3436H81.5352V6.63574H89.488Z" fill="#ffffff"></path>
        <path d="M94.5636 12.7908L90.5458 6.63513H92.8861C93.0518 6.63513 93.176 6.65599 93.2382 6.69772C93.321 6.73946 93.3831 6.82292 93.4246 6.90639L96.3033 11.5805C96.3241 11.4971 96.3655 11.4345 96.4069 11.351C96.4483 11.2884 96.4897 11.2049 96.5312 11.1215L99.1614 6.94813C99.2857 6.73946 99.4514 6.61426 99.6585 6.61426H101.916L97.8152 12.7074L101.999 19.343H99.6585C99.5135 19.343 99.3685 19.3013 99.2857 19.2178C99.1821 19.1343 99.0993 19.0509 99.0372 18.9465L96.1169 14.0846C96.0962 14.1472 96.0755 14.2098 96.0341 14.2932C96.0134 14.3558 95.972 14.4184 95.9513 14.4602L93.1346 18.9257C93.0725 19.03 92.9896 19.1135 92.9068 19.1969C92.8032 19.2804 92.6997 19.3221 92.5547 19.3221H90.3594L94.5636 12.7908Z" fill="#ffffff"></path>
        <path d="M22.3468 19.5104V6.51043L17.0863 3.44302V5.63403L20.4621 7.61637V18.4045L18.971 19.2809V10.5169H17.0863V20.3868L15.5537 21.2632V8.05457H13.669V22.3692L12.1364 23.2665V2.75441L15.5537 4.75763V2.54575L11.1838 0L6.83452 2.54575V4.73676L10.2518 2.75441V23.2665L8.71919 22.3692V8.05457H6.83452V21.2841L5.30193 20.3868V10.5169H3.41726V19.3018L1.88467 18.4045V7.61637L1.98822 7.55377L5.30193 5.63403V3.42215L0 6.51043V19.5104L11.1838 26L22.3468 19.5104Z" fill="#ffffff"></path>
    </symbol>
</svg>