<svg xmlns="http://www.w3.org/2000/svg" style="display: none;">

    <!-- Plus Icon -->
    <symbol id="icon-plus" viewBox="0 0 12 12">
        <path fill-rule="evenodd" clip-rule="evenodd" d="M4.84615 0H7.15385V4.84615H12V7.15385H7.15385V12H4.84615V7.15385H0V4.84615H4.84615V0Z" fill="white"></path>
    </symbol>

    <!-- Arrow Right Icon -->
    <symbol id="icon-arrow-right" viewBox="0 0 20 20">
        <path d="M10.458 6.00259L10.1304 6.33015C10.0274 6.433 9.97041 6.57048 9.97041 6.71682C9.97041 6.86332 10.0274 7.01324 10.1304 7.11609L12.2356 9.23389H5.54724C5.24561 9.23389 5 9.45405 5 9.7556V10.2191C5 10.5206 5.24561 10.7964 5.54724 10.7964H12.2594L10.1304 12.91C10.0274 13.013 9.97041 13.1426 9.97041 13.2891C9.97041 13.4354 10.0274 13.5691 10.1304 13.672L10.458 13.9978C10.6713 14.211 11.0182 14.2101 11.2315 13.9969L14.8403 10.3876C14.9431 10.2849 15 10.147 15 9.99942V9.99788C15 9.85145 14.9431 9.71389 14.8403 9.61113L11.2315 6.00259C11.0184 5.78926 10.6713 5.78926 10.458 6.00259Z"></path>
    </symbol>

    <!-- Flag CHF Icon -->
    <symbol id="flag-chf" viewBox="0 0 512 512">
        <circle cx="256" cy="256" r="256" fill="#d80027"></circle>
        <path d="M389.6 211.5h-89v-89h-89.1v89h-89v89h89v89h89v-89h89z" fill="#eee"></path>
    </symbol>

    <!-- Flag JPY Icon -->
    <symbol id="flag-jpy" viewBox="0 0 512 512">
        <circle cx="256" cy="256" r="256" fill="#eee"></circle>
        <circle cx="256" cy="256" r="111.3" fill="#d80027"></circle>
    </symbol>

    <!-- Close Tiny Icon -->
    <symbol id="icon-close-tiny" viewBox="0 0 6 6">
        <path d="M0.181221 0.231785C0.422849 -0.00855682 0.814606 -0.00855664 1.05623 0.231785L5.79908 4.94939C6.04071 5.18973 6.04071 5.5794 5.79908 5.81974C5.55745 6.06009 5.1657 6.06009 4.92407 5.81974L0.181221 1.10214C-0.0604062 0.8618 -0.0604079 0.472128 0.181221 0.231785Z" fill="currentColor"></path>
        <path d="M0.200989 5.76821C-0.0406389 5.52787 -0.0406388 5.1382 0.200989 4.89786L4.94384 0.180257C5.18546 -0.0600847 5.57722 -0.0600864 5.81885 0.180256C6.06048 0.420599 6.06048 0.81027 5.81885 1.05061L1.076 5.76821C0.834375 6.00856 0.442618 6.00856 0.200989 5.76821Z" fill="currentColor"></path>
    </symbol>

    <!-- Pin Icon -->
    <symbol id="icon-pin" viewBox="0 0 8 8">
        <path d="M7.83505 2.86393L5.04669 0.07557C4.94603 -0.02519 4.78259 -0.02519 4.68193 0.07557L4.67011 0.0873846C4.49914 0.25831 4.40493 0.485678 4.40493 0.72744C4.40493 0.883198 4.4445 1.03266 4.51802 1.1652L2.60046 2.66914C2.37717 2.46958 2.09217 2.36036 1.79031 2.36036C1.46502 2.36036 1.15923 2.48702 0.929281 2.71702L0.911792 2.73451C0.811032 2.83522 0.811032 2.99856 0.911792 3.09927L2.58225 4.76973L0.955335 6.39659C0.922781 6.43007 0.955335 6.39659 0.646431 6.85511C0.1643 7.45632 0.068957 7.56647 0.0640041 7.57214C-0.0255087 7.67409 -0.0205558 7.82784 0.0752513 7.92411C0.125451 7.97451 0.191644 8 0.258043 8C0.318561 8 0.379234 7.97885 0.42804 7.93618C0.432322 7.93247 0.539944 7.83893 1.14507 7.35375C1.60607 7.04222 1.57001 7.07735 1.60607 7.04222L3.23036 5.41793L4.81135 6.99893C4.86171 7.04934 4.92775 7.07451 4.99373 7.07451C5.05972 7.07451 5.12581 7.04934 5.17611 6.99893L5.1936 6.98144C5.4236 6.75149 5.55026 6.44566 5.55026 6.12042C5.55026 5.81855 5.44099 5.53355 5.24148 5.31026L6.74542 3.3927C6.87796 3.46622 7.02742 3.5058 7.18318 3.5058C7.42499 3.5058 7.65231 3.41164 7.82324 3.24061L7.83505 3.2288C7.93581 3.12798 7.93581 2.96464 7.83505 2.86393Z"></path>
    </symbol>

    <!-- Notification Icon -->
    <symbol id="icon-notification" viewBox="0 0 16 16">
        <path fill-rule="evenodd" clip-rule="evenodd" d="M9.59961 1.6C9.59961 1.95066 9.4868 2.27498 9.2955 2.53863C11.6631 3.05421 13.4231 4.94306 13.4231 7.10799V10.2749C14.0056 10.5895 14.3996 11.1511 14.3996 11.8029C14.3996 12.8084 13.4615 13.6 12.3397 13.6H11.2721L10.9638 14.2779C10.4047 15.5075 9.07627 16 7.99961 16C6.92295 16 5.5945 15.5075 5.03541 14.2779L4.72715 13.6H3.65956C2.5379 13.6 1.59961 12.8087 1.59961 11.8029C1.59961 11.1512 1.99357 10.5895 2.57609 10.2748V7.10799C2.57609 4.889 4.34404 3.04096 6.70204 2.53632C6.51176 2.27308 6.39961 1.94963 6.39961 1.6C6.39961 0.716344 7.11595 0 7.99961 0C8.88326 0 9.59961 0.716344 9.59961 1.6ZM6.44425 13.6C6.655 14.0635 7.23257 14.8001 7.9998 14.8C8.76692 14.7999 9.34422 14.0635 9.55497 13.6H6.44425ZM11.8838 7.10799V10.9578C11.8838 10.9723 11.8847 10.9866 11.8865 11.0007C11.9112 11.1983 12.1046 11.3523 12.3397 11.3523C12.6267 11.3523 12.8603 11.5544 12.8603 11.8029C12.8603 12.0513 12.6268 12.2535 12.3397 12.2535H3.65956C3.37241 12.2535 3.13891 12.0514 3.13891 11.8029C3.13891 11.5544 3.37241 11.3523 3.65956 11.3523C3.8946 11.3523 4.08805 11.1983 4.11273 11.0007C4.11449 10.9866 4.11539 10.9723 4.11539 10.9578V7.10799C4.11539 5.25451 5.8579 3.74652 7.99961 3.74652C10.1413 3.74652 11.8838 5.30696 11.8838 7.10799Z"></path>
    </symbol>

    <!-- Profile Level Standard Icon -->
    <symbol id="icon-profile-level-standart" viewBox="0 0 18 17">
        <path d="M5.05566 10.5466L4.30542 13.3466C4.25301 13.5422 4.33215 13.7491 4.50159 13.8605C4.54403 13.888 4.58978 13.9081 4.63687 13.9207C4.77814 13.9585 4.93237 13.9287 5.051 13.8337L7.28606 12.0437L5.05566 10.5466Z" fill="#35CB01"></path>
        <path d="M16.9012 2.41432C16.7887 2.27871 16.61 2.21658 16.4378 2.25522L0.953858 5.70908C0.770789 5.74997 0.630067 5.89603 0.594982 6.08009C0.560339 6.26492 0.639064 6.45166 0.794221 6.556L4.22453 8.85853L14.1089 4.13719L5.87703 9.96713L11.626 13.8259C11.6689 13.8542 11.7162 13.876 11.7657 13.8892C11.8478 13.9112 11.9353 13.9107 12.0187 13.8865C12.1522 13.8472 12.2616 13.7504 12.317 13.6235L16.9697 2.89985C17.0398 2.73745 17.0135 2.55053 16.9012 2.41432Z" fill="#35CB01"></path>
    </symbol>

</svg>