<!-- settings-icons.svg -->
<svg xmlns="http://www.w3.org/2000/svg" style="display: none;">

   <!-- Settings Icon -->
   <symbol id="icon-settings" viewBox="0 0 20 20">
      <path d="M17.723 11.7533L16.2128 10.6033C16.2319 10.426 16.2484 10.2187 16.2484 9.99934C16.2484 9.78 16.2326 9.57269 16.2128 9.39534L17.7244 8.24469C18.0051 8.02869 18.0818 7.64534 17.9031 7.32603L16.3326 4.68C16.1648 4.38134 15.7972 4.228 15.4241 4.362L13.6421 5.05866C13.3004 4.81866 12.9424 4.616 12.572 4.454L12.3009 2.61334C12.2564 2.264 11.9442 2 11.5752 2H8.42602C8.05701 2 7.74553 2.264 7.70169 2.608L7.42991 4.45534C7.07117 4.61269 6.71861 4.81269 6.36192 5.06L4.57508 4.36134C4.24028 4.23534 3.83978 4.37666 3.67342 4.674L2.10089 7.32334C1.91537 7.62869 1.99203 8.02534 2.2789 8.24669L3.78914 9.39669C3.76517 9.62134 3.75355 9.81669 3.75355 10C3.75355 10.1834 3.7652 10.3787 3.78914 10.604L2.27752 11.7547C1.99681 11.9713 1.92082 12.3547 2.09951 12.6733L3.67002 15.3193C3.83776 15.6173 4.20196 15.772 4.57848 15.6373L6.36054 14.9407C6.70148 15.18 7.05952 15.3827 7.42991 15.5453L7.70102 17.3853C7.7455 17.736 8.05701 18 8.4267 18H11.5759C11.9449 18 12.2571 17.736 12.3009 17.392L12.5727 15.5453C12.9314 15.3873 13.2833 15.188 13.6407 14.94L15.4275 15.6387C15.5138 15.6713 15.6035 15.688 15.6959 15.688C15.9615 15.688 16.2059 15.5467 16.3291 15.3267L17.9065 12.6667C18.0818 12.3547 18.0051 11.9713 17.723 11.7533ZM10.0006 12.6667C8.49037 12.6667 7.26217 11.4707 7.26217 10C7.26217 8.52934 8.49037 7.33334 10.0006 7.33334C11.5108 7.33334 12.739 8.52934 12.739 10C12.739 11.4707 11.5108 12.6667 10.0006 12.6667Z"></path>
   </symbol>

   <!-- Settings Sound Icon -->
   <symbol id="icon-settings-sound" viewBox="0 0 20 20">
      <path d="M8.77216 3.1141C8.54605 3.01671 8.28563 3.07108 8.11018 3.25342L4.43708 7.10593H1.60778C1.27085 7.10593 1 7.38927 1 7.7394V12.3114C1 12.6615 1.27085 12.9448 1.60778 12.9448H4.42364L8.11218 16.7974C8.22846 16.9191 8.38503 16.9833 8.54206 16.9833C8.61958 16.9833 8.7001 16.9678 8.77415 16.9352C9.00226 16.8378 9.14987 16.6062 9.14987 16.3504V3.69934C9.14935 3.44299 9.00026 3.21146 8.77216 3.1141Z"></path>
      <path d="M15.097 10.007C15.097 7.6338 13.7438 5.49619 11.6485 4.5592C11.3399 4.42144 10.9816 4.5701 10.8504 4.89225C10.7177 5.21336 10.8603 5.58578 11.1689 5.72357C12.8189 6.46009 13.8819 8.14138 13.8819 10.007C13.8819 11.8644 12.8229 13.5416 11.1823 14.2786C10.8747 14.4174 10.7321 14.7898 10.8648 15.1105C10.9637 15.3503 11.1878 15.4932 11.4249 15.4932C11.5034 15.4932 11.5859 15.4766 11.6644 15.4409C13.7507 14.5039 15.097 12.371 15.097 10.007Z"></path>
      <path d="M13.9652 2.05222C13.6566 1.9129 13.2973 2.06207 13.1671 2.38424C13.0339 2.7059 13.1765 3.07829 13.4856 3.21553C16.0967 4.38352 17.7835 7.04892 17.7835 10.0075C17.7835 12.9551 16.1032 15.6154 13.5001 16.7854C13.1914 16.9242 13.0488 17.2961 13.1805 17.6172C13.2804 17.8571 13.5035 18 13.7386 18C13.8191 18 13.9026 17.9834 13.9811 17.9477C17.0291 16.5783 18.9996 13.4607 18.9996 10.0069C19.0001 6.54239 17.0246 3.41962 13.9652 2.05222Z"></path>
   </symbol>

</svg>